<?xml version="1.0" encoding="utf-8"?>

<!DOCTYPE svg PUBLIC "-//W3C//DTD SVG 1.0//EN" "http://www.w3.org/TR/2001/REC-SVG-20010904/DTD/svg10.dtd">
<!-- Uploaded to: SVG Repo, www.svgrepo.com, Generator: SVG Repo Mixer Tools -->
<svg version="1.0" id="Layer_1" xmlns="http://www.w3.org/2000/svg" xmlns:xlink="http://www.w3.org/1999/xlink" 
	 width="800px" height="800px" viewBox="0 0 64 64" enable-background="new 0 0 64 64" xml:space="preserve">
<g>
	<path fill="#231F20" d="M56,4H40c0-2.211-1.789-4-4-4h-8c-2.211,0-4,1.789-4,4H8C5.789,4,4,5.789,4,8v5c0,0.553,0.447,1,1,1h54
		c0.553,0,1-0.447,1-1V8C60,5.789,58.211,4,56,4z"/>
	<path fill="#231F20" d="M20,24c-0.553,0-1,0.447-1,1v26c0,0.553,0.447,1,1,1s1-0.447,1-1V25C21,24.447,20.553,24,20,24z"/>
	<path fill="#231F20" d="M32,24c-0.553,0-1,0.447-1,1v26c0,0.553,0.447,1,1,1s1-0.447,1-1V25C33,24.447,32.553,24,32,24z"/>
	<path fill="#231F20" d="M44,24c-0.553,0-1,0.447-1,1v26c0,0.553,0.447,1,1,1s1-0.447,1-1V25C45,24.447,44.553,24,44,24z"/>
	<path fill="#231F20" d="M9,16H7v44c0,2.211,1.789,4,4,4h42c2.211,0,4-1.789,4-4V16h-2H9z M23,51c0,1.657-1.343,3-3,3s-3-1.343-3-3
		V25c0-1.657,1.343-3,3-3s3,1.343,3,3V51z M35,51c0,1.657-1.343,3-3,3s-3-1.343-3-3V25c0-1.657,1.343-3,3-3s3,1.343,3,3V51z M47,51
		c0,1.657-1.343,3-3,3s-3-1.343-3-3V25c0-1.657,1.343-3,3-3s3,1.343,3,3V51z"/>
</g>
</svg>